<svg xmlns="http://www.w3.org/2000/svg" width="183.036" height="156.068" viewBox="0 0 183.036 156.068">
  <g id="Component_1_1" data-name="Component 1 – 1" transform="translate(1.348) rotate(0.5)">
    <g id="Group_1" data-name="Group 1" transform="translate(0 36.488) rotate(-90)">
      <g id="Rectangle_1" data-name="Rectangle 1" transform="translate(4.562 181.695) rotate(-90)" fill="#fff" stroke="#000" stroke-width="3">
        <rect width="181.695" height="27.365" rx="13.682" stroke="none"/>
        <rect x="1.5" y="1.5" width="178.695" height="24.365" rx="12.182" fill="none"/>
      </g>
      <g id="Rectangle_10" data-name="Rectangle 10" transform="translate(36.488 168.717) rotate(180)" fill="#fff" stroke="#000" stroke-width="3">
        <rect width="36.488" height="12.978" rx="6" stroke="none"/>
        <rect x="1.5" y="1.5" width="33.488" height="9.978" rx="4.5" fill="none"/>
      </g>
      <g id="Rectangle_11" data-name="Rectangle 11" transform="translate(36.488 25.956) rotate(180)" fill="#fff" stroke="#000" stroke-width="3">
        <rect width="36.488" height="12.978" rx="6" stroke="none"/>
        <rect x="1.5" y="1.5" width="33.488" height="9.978" rx="4.5" fill="none"/>
      </g>
    </g>
    <g id="Path_1" data-name="Path 1" transform="translate(-231.374 733.702) rotate(-90)" fill="#5959ef" stroke-linecap="square">
      <path d="M 706.077880859375 273.0704345703125 L 706.077880859375 258.7454223632812 L 718.1668701171875 258.7454223632812 L 706.077880859375 273.0704345703125 Z" stroke="none"/>
      <path d="M 706.577880859375 259.2454223632812 L 706.577880859375 271.7026977539062 L 717.0906982421875 259.2454223632812 L 706.577880859375 259.2454223632812 M 705.577880859375 258.2454223632812 L 719.2431030273438 258.2454223632812 L 705.577880859375 274.4381713867188 L 705.577880859375 271.91064453125 L 705.577880859375 273.2947387695312 C 705.577880859375 273.2947387695312 705.577880859375 270.6765441894531 705.577880859375 258.2454223632812 Z" stroke="none" fill="#5959ef"/>
    </g>
    <path id="Path_2" data-name="Path 2" d="M706.747,287.433l18.794-27.566v14.5l-18.794,29.713Z" transform="translate(-227.305 734.388) rotate(-90)" fill="#fd7373" stroke="#fd7373" stroke-width="1"/>
    <path id="Path_4" data-name="Path 4" d="M706.747,287.433l18.794-27.566v14.5l-18.794,29.713Z" transform="translate(-191.125 734.388) rotate(-90)" fill="#5959ef" stroke="#5959ef" stroke-width="1"/>
    <g id="Path_5" data-name="Path 5" transform="translate(413.31 -697.168) rotate(90)" fill="#5959ef" stroke-linecap="square">
      <path d="M 706.0778198242188 273.0963134765625 L 706.0778198242188 258.7454223632812 L 718.496826171875 258.7454223632812 L 706.0778198242188 273.0963134765625 Z" stroke="none"/>
      <path d="M 706.5778198242188 259.2454223632812 L 706.5778198242188 271.7544250488281 L 717.4028930664062 259.2454223632812 L 706.5778198242188 259.2454223632812 M 705.5778198242188 258.2454223632812 L 719.5907592773438 258.2454223632812 L 705.5778198242188 274.4381713867188 L 705.5778198242188 271.91064453125 L 705.5778198242188 273.2947387695312 C 705.5778198242188 273.2947387695312 705.5778198242188 270.6765441894531 705.5778198242188 258.2454223632812 Z" stroke="none" fill="#5959ef"/>
    </g>
    <path id="Path_6" data-name="Path 6" d="M706.747,287.433l18.794-27.566v14.5l-18.794,29.713Z" transform="translate(-154.109 734.388) rotate(-90)" fill="#fd7373" stroke="#fd7373" stroke-width="1"/>
    <g id="Group_2" data-name="Group 2" transform="translate(0 95.488) rotate(-90)">
      <g id="Rectangle_1-2" data-name="Rectangle 1" transform="translate(4.562 181.695) rotate(-90)" fill="#fff" stroke="#000" stroke-width="3">
        <rect width="181.695" height="27.365" rx="13.682" stroke="none"/>
        <rect x="1.5" y="1.5" width="178.695" height="24.365" rx="12.182" fill="none"/>
      </g>
      <g id="Rectangle_10-2" data-name="Rectangle 10" transform="translate(36.488 168.717) rotate(180)" fill="#fff" stroke="#000" stroke-width="3">
        <rect width="36.488" height="12.978" rx="6" stroke="none"/>
        <rect x="1.5" y="1.5" width="33.488" height="9.978" rx="4.5" fill="none"/>
      </g>
      <g id="Rectangle_11-2" data-name="Rectangle 11" transform="translate(36.488 25.956) rotate(180)" fill="#fff" stroke="#000" stroke-width="3">
        <rect width="36.488" height="12.978" rx="6" stroke="none"/>
        <rect x="1.5" y="1.5" width="33.488" height="9.978" rx="4.5" fill="none"/>
      </g>
    </g>
    <g id="Path_7" data-name="Path 7" transform="translate(-231.374 792.702) rotate(-90)" fill="#5959ef" stroke-linecap="square">
      <path d="M 706.077880859375 273.0704345703125 L 706.077880859375 258.7454223632812 L 718.1668701171875 258.7454223632812 L 706.077880859375 273.0704345703125 Z" stroke="none"/>
      <path d="M 706.577880859375 259.2454223632812 L 706.577880859375 271.7026977539062 L 717.0906982421875 259.2454223632812 L 706.577880859375 259.2454223632812 M 705.577880859375 258.2454223632812 L 719.2431030273438 258.2454223632812 L 705.577880859375 274.4381713867188 L 705.577880859375 271.91064453125 L 705.577880859375 273.2947387695312 C 705.577880859375 273.2947387695312 705.577880859375 270.6765441894531 705.577880859375 258.2454223632812 Z" stroke="none" fill="#5959ef"/>
    </g>
    <path id="Path_8" data-name="Path 8" d="M706.747,287.433l18.794-27.566v14.5l-18.794,29.713Z" transform="translate(-227.305 793.388) rotate(-90)" fill="#fd7373" stroke="#fd7373" stroke-width="1"/>
    <path id="Path_9" data-name="Path 9" d="M706.747,287.433l18.794-27.566v14.5l-18.794,29.713Z" transform="translate(-191.125 793.388) rotate(-90)" fill="#5959ef" stroke="#5959ef" stroke-width="1"/>
    <g id="Path_10" data-name="Path 10" transform="translate(413.31 -638.168) rotate(90)" fill="#5959ef" stroke-linecap="square">
      <path d="M 706.0778198242188 273.0963134765625 L 706.0778198242188 258.7454223632812 L 718.496826171875 258.7454223632812 L 706.0778198242188 273.0963134765625 Z" stroke="none"/>
      <path d="M 706.5778198242188 259.2454223632812 L 706.5778198242188 271.7544250488281 L 717.4028930664062 259.2454223632812 L 706.5778198242188 259.2454223632812 M 705.5778198242188 258.2454223632812 L 719.5907592773438 258.2454223632812 L 705.5778198242188 274.4381713867188 L 705.5778198242188 271.91064453125 L 705.5778198242188 273.2947387695312 C 705.5778198242188 273.2947387695312 705.5778198242188 270.6765441894531 705.5778198242188 258.2454223632812 Z" stroke="none" fill="#5959ef"/>
    </g>
    <path id="Path_11" data-name="Path 11" d="M706.747,287.433l18.794-27.566v14.5l-18.794,29.713Z" transform="translate(-154.109 793.388) rotate(-90)" fill="#fd7373" stroke="#fd7373" stroke-width="1"/>
    <g id="Group_3" data-name="Group 3" transform="translate(0 154.488) rotate(-90)">
      <g id="Rectangle_1-3" data-name="Rectangle 1" transform="translate(4.562 181.695) rotate(-90)" fill="#fff" stroke="#000" stroke-width="3">
        <rect width="181.695" height="27.365" rx="13.682" stroke="none"/>
        <rect x="1.5" y="1.5" width="178.695" height="24.365" rx="12.182" fill="none"/>
      </g>
      <g id="Rectangle_10-3" data-name="Rectangle 10" transform="translate(36.488 168.717) rotate(180)" fill="#fff" stroke="#000" stroke-width="3">
        <rect width="36.488" height="12.978" rx="6" stroke="none"/>
        <rect x="1.5" y="1.5" width="33.488" height="9.978" rx="4.5" fill="none"/>
      </g>
      <g id="Rectangle_11-3" data-name="Rectangle 11" transform="translate(36.488 25.956) rotate(180)" fill="#fff" stroke="#000" stroke-width="3">
        <rect width="36.488" height="12.978" rx="6" stroke="none"/>
        <rect x="1.5" y="1.5" width="33.488" height="9.978" rx="4.5" fill="none"/>
      </g>
    </g>
    <g id="Path_12" data-name="Path 12" transform="translate(-231.374 851.702) rotate(-90)" fill="#5959ef" stroke-linecap="square">
      <path d="M 706.077880859375 273.0704345703125 L 706.077880859375 258.7454223632812 L 718.1668701171875 258.7454223632812 L 706.077880859375 273.0704345703125 Z" stroke="none"/>
      <path d="M 706.577880859375 259.2454223632812 L 706.577880859375 271.7026977539062 L 717.0906982421875 259.2454223632812 L 706.577880859375 259.2454223632812 M 705.577880859375 258.2454223632812 L 719.2431030273438 258.2454223632812 L 705.577880859375 274.4381713867188 L 705.577880859375 271.91064453125 L 705.577880859375 273.2947387695312 C 705.577880859375 273.2947387695312 705.577880859375 270.6765441894531 705.577880859375 258.2454223632812 Z" stroke="none" fill="#5959ef"/>
    </g>
    <path id="Path_13" data-name="Path 13" d="M706.747,287.433l18.794-27.566v14.5l-18.794,29.713Z" transform="translate(-227.305 852.388) rotate(-90)" fill="#fd7373" stroke="#fd7373" stroke-width="1"/>
    <path id="Path_14" data-name="Path 14" d="M706.747,287.433l18.794-27.566v14.5l-18.794,29.713Z" transform="translate(-191.125 852.388) rotate(-90)" fill="#5959ef" stroke="#5959ef" stroke-width="1"/>
    <g id="Path_15" data-name="Path 15" transform="translate(413.31 -579.168) rotate(90)" fill="#5959ef" stroke-linecap="square">
      <path d="M 706.0778198242188 273.0963134765625 L 706.0778198242188 258.7454223632812 L 718.496826171875 258.7454223632812 L 706.0778198242188 273.0963134765625 Z" stroke="none"/>
      <path d="M 706.5778198242188 259.2454223632812 L 706.5778198242188 271.7544250488281 L 717.4028930664062 259.2454223632812 L 706.5778198242188 259.2454223632812 M 705.5778198242188 258.2454223632812 L 719.5907592773438 258.2454223632812 L 705.5778198242188 274.4381713867188 L 705.5778198242188 271.91064453125 L 705.5778198242188 273.2947387695312 C 705.5778198242188 273.2947387695312 705.5778198242188 270.6765441894531 705.5778198242188 258.2454223632812 Z" stroke="none" fill="#5959ef"/>
    </g>
    <path id="Path_16" data-name="Path 16" d="M706.747,287.433l18.794-27.566v14.5l-18.794,29.713Z" transform="translate(-154.109 852.388) rotate(-90)" fill="#fd7373" stroke="#fd7373" stroke-width="1"/>
  </g>
</svg>
